<?xml version="1.0" encoding="utf-8"?>
<!-- Generator: Adobe Illustrator 18.1.0, SVG Export Plug-In . SVG Version: 6.00 Build 0)  -->
<!DOCTYPE svg PUBLIC "-//W3C//DTD SVG 1.1//EN" "http://www.w3.org/Graphics/SVG/1.1/DTD/svg11.dtd">
<svg version="1.1" id="Layer_1" xmlns="http://www.w3.org/2000/svg" xmlns:xlink="http://www.w3.org/1999/xlink" x="0px" y="0px"
	 viewBox="0 0 765.8 750.1" enable-background="new 0 0 765.8 750.1" xml:space="preserve">
<g>
	<polygon fill="#43316D" points="401.9,750.1 199.7,750.1 32.5,341.9 401.9,341.9 	"/>
	<rect x="333.9" y="210.9" fill="#F4E9D8" width="76.2" height="62.7"/>
	<g>
		<path fill="#43316D" d="M321,240.7c10.8,8.6,26.5,7.9,36.5-2.1c3.4-3.4,5.8-7.6,7-11.9c-4.3-5.5-8.8-10.8-13.7-15.8L321,240.7z"/>
	</g>
	<polygon fill="#523B80" points="765.8,750.1 401.9,750.1 401.9,274.3 434.3,264.4 	"/>
	<g>
		<path fill="#43316D" d="M388.8,269c-0.3,0.7,3.1,2.4,2.8,3.1l-58.6-1c-1.2,0-2.1,0.4-2.8,1h-65c-1.7-2.4-5.8-2.4-7.5,0l5.4-35.5
			c-4.8-10.6-16-4.3-16-16.7c0-32-3.1-42.4,23.2-56.7c-15.3-4.3-31.5-6.5-48.2-6.5c-9.7,0-19.1,0.8-28.4,2.2
			c-51.9,60.2-49.3,151.2,7.8,208.3c52.6,52.6,134,59,193.5,19c4.5-15.8,6.9-32.4,6.9-49.6C401.9,312.6,397.2,289.8,388.8,269z"/>
	</g>
	<rect x="258.4" y="253" fill="#F4E9D8" width="102.3" height="40"/>
	<line fill="none" stroke="#43316D" stroke-width="2" stroke-miterlimit="10" x1="310.5" y1="243" x2="310.5" y2="196.8"/>
	<rect x="32.6" y="5.7" fill="#F7901E" width="24.2" height="747.5"/>
	<path fill="#F4E9D8" d="M350.7,210.9c-21.9-22.4-49.5-39.2-80.6-47.8c-9-2.5-18.4-4.3-27.9-5.4c-7.4,11.6-11.7,25.3-11.7,40.1
		c0,41.2,33.4,74.7,74.7,74.7c27.9,0,52.1-15.3,65-37.9c-1.9-2.7-3.8-5.4-5.8-7.9C360.2,221.2,355.6,215.9,350.7,210.9z"/>
	<path fill="#F4E9D8" d="M262.5,552.2h-43.4V571h43.4c5.2,0,9.4-4.2,9.4-9.4C271.9,556.4,267.7,552.2,262.5,552.2z"/>
	<path fill="#F4E9D8" d="M262.5,523.6h-43.4v18.8h43.4c5.2,0,9.4-4.2,9.4-9.4C271.9,527.8,267.7,523.6,262.5,523.6z"/>
	<path fill="#F4E9D8" d="M262.5,495h-43.4v18.8h43.4c5.2,0,9.4-4.2,9.4-9.4C271.9,499.2,267.7,495,262.5,495z"/>
	<path fill="#F4E9D8" d="M225.5,466.4h-6.6c0.1,0.4,0.1,0.8,0.1,1.2v17.6h6.4c5.2,0,9.4-4.2,9.4-9.4
		C234.9,470.6,230.7,466.4,225.5,466.4z"/>
	<rect x="247.4" y="465.5" fill="#523B80" width="325.3" height="284.7"/>
	<rect x="230.6" y="197.8" fill="#F4E9D8" width="32.4" height="74.3"/>
	<path fill="#F7901E" d="M237.5,228.8c1.5,13.7,13.2,24.3,27.3,24.3c14.1,0,25.7-10.6,27.3-24.3H237.5z"/>
	<path fill="#F7901E" d="M318.8,228.8c1.5,13.7,13.2,24.3,27.3,24.3c14.1,0,25.7-10.6,27.3-24.3H318.8z"/>
	<rect x="218.1" y="466.4" fill="#F4E9D8" width="29.3" height="104.2"/>
	<path fill="#43316D" d="M324.1,262.1l-18.6-33.4l-18.6,33.4C299.3,262.1,311.7,262.1,324.1,262.1z"/>
	<line fill="none" stroke="#43316D" stroke-width="3" stroke-miterlimit="10" x1="321" y1="607.8" x2="321" y2="768.1"/>
	<line fill="none" stroke="#43316D" stroke-width="3" stroke-miterlimit="10" x1="401.9" y1="607.8" x2="401.9" y2="768.1"/>
	<line fill="none" stroke="#43316D" stroke-width="3" stroke-miterlimit="10" x1="483.8" y1="607.8" x2="483.8" y2="768.1"/>
	<path fill="#43316D" d="M317.7,94c-23.1,7.5-45.1,15.7-64.2,24.3h111L317.7,94z"/>
	<g>
		<path fill="#523B80" d="M320.5,92.5c-0.9,0.5-1.9,1-2.8,1.5l46.8,24.3h-111c-22.5,10.2-40.9,21-52.1,32.2
			c-2.7,2.7-5.3,5.5-7.8,8.4c9.2-1.5,18.7-2.2,28.4-2.2c6.9,0,13.6,0.4,20.3,1.2c9.6,1.1,18.9,2.9,27.9,5.4
			c31,8.6,58.7,25.4,80.6,47.8c0.3,0.3,0.6,0.7,1,1c4.5,4.7,8.8,9.6,12.8,14.8c0.2,0.3,0.4,0.6,0.7,0.9c1.8,2.3,3.5,4.7,5.1,7.1
			c7.4,10.7,13.6,22.2,18.6,34.3c8.3,20.5,12.9,42.8,13.1,66.2h26.4c5.2-16.3,10.7-33.1,16.3-50.2V0
			C444.1,0.4,398.7,89.5,320.5,92.5z"/>
	</g>
	<path fill="#F4E9D8" d="M364.8,117.6C230.4,66.2,56.7,92.5,56.7,92.5V5.7C56.7,5.7,273-2.4,364.8,117.6z"/>
	<circle fill="#7A5BA6" cx="81.7" cy="28.7" r="6.9"/>
	<circle fill="#7A5BA6" cx="81.7" cy="66.5" r="6.9"/>
	<rect x="0" y="340.5" fill="#F4E9D8" width="89.5" height="18.1"/>
	<rect x="0" y="378.7" fill="#F4E9D8" width="89.5" height="18.1"/>
	<rect x="0" y="416.7" fill="#F4E9D8" width="89.5" height="18.1"/>
	<rect x="113.1" y="464.7" fill="#F4E9D8" width="89.5" height="18.1"/>
	<rect x="169.2" y="505.8" fill="#F4E9D8" width="33" height="18.1"/>
	<rect x="169.2" y="550.5" fill="#F4E9D8" width="33" height="18.1"/>
	<circle fill="#43316D" cx="284.2" cy="295.5" r="12.4"/>
	<circle fill="#43316D" cx="331.3" cy="295.5" r="12.4"/>
</g>
</svg>
