<?xml version="1.0" encoding="utf-8"?>
<!-- Generator: Adobe Illustrator 18.1.0, SVG Export Plug-In . SVG Version: 6.00 Build 0)  -->
<!DOCTYPE svg PUBLIC "-//W3C//DTD SVG 1.1//EN" "http://www.w3.org/Graphics/SVG/1.1/DTD/svg11.dtd">
<svg version="1.1" xmlns="http://www.w3.org/2000/svg" xmlns:xlink="http://www.w3.org/1999/xlink" x="0px" y="0px"
	 viewBox="0 0 1400 900" enable-background="new 0 0 1400 900" xml:space="preserve">
<g id="Background">
	<rect x="-2.8" y="-2.8" fill="#7A5BA6" width="1402.8" height="920.5"/>
</g>
<g id="Death">
	<polygon fill="#43316D" points="1077.6,899.7 875.4,899.7 708.2,491.5 1077.6,491.5 	"/>
	<rect x="1009.6" y="360.5" fill="#F4E9D8" width="76.2" height="62.7"/>
	<g>
		<path fill="#43316D" d="M996.7,390.3c10.8,8.6,26.5,7.9,36.5-2.1c3.4-3.4,5.8-7.6,7-11.9c-4.3-5.5-8.8-10.8-13.7-15.8L996.7,390.3
			z"/>
	</g>
	<polygon fill="#523B80" points="1441.5,899.7 1077.6,899.7 1077.6,423.8 1110,414 	"/>
	<g>
		<path fill="#43316D" d="M1064.4,418.6c-0.3,0.7,3.1,2.4,2.8,3.1l-58.6-1c-1.2,0-2.1,0.4-2.8,1h-65c-1.7-2.4-5.8-2.4-7.5,0
			l5.4-35.5c-4.8-10.6-16-4.3-16-16.7c0-32-3.1-42.4,23.2-56.7c-15.3-4.3-31.5-6.5-48.2-6.5c-9.7,0-19.1,0.8-28.4,2.2
			c-51.9,60.2-49.3,151.2,7.8,208.3c52.6,52.6,134,59,193.5,19c4.5-15.8,6.9-32.4,6.9-49.6C1077.6,462.2,1072.9,439.4,1064.4,418.6z
			"/>
	</g>
	<rect x="934.1" y="402.5" fill="#F4E9D8" width="102.3" height="40"/>
	<line fill="none" stroke="#43316D" stroke-width="2" stroke-miterlimit="10" x1="986.2" y1="392.6" x2="986.2" y2="346.4"/>
	<rect x="708.2" y="155.3" fill="#F7901E" width="24.2" height="747.5"/>
	<path fill="#F4E9D8" d="M1026.4,360.5c-21.9-22.4-49.5-39.2-80.6-47.8c-9-2.5-18.4-4.3-27.9-5.4c-7.4,11.6-11.7,25.3-11.7,40.1
		c0,41.2,33.4,74.7,74.7,74.7c27.9,0,52.1-15.3,65-37.9c-1.9-2.7-3.8-5.4-5.8-7.9C1035.9,370.7,1031.3,365.5,1026.4,360.5z"/>
	<path fill="#F4E9D8" d="M938.1,701.8h-43.4v18.8h43.4c5.2,0,9.4-4.2,9.4-9.4C947.6,706,943.3,701.8,938.1,701.8z"/>
	<path fill="#F4E9D8" d="M938.1,673.2h-43.4V692h43.4c5.2,0,9.4-4.2,9.4-9.4C947.6,677.4,943.3,673.2,938.1,673.2z"/>
	<path fill="#F4E9D8" d="M938.1,644.6h-43.4v18.8h43.4c5.2,0,9.4-4.2,9.4-9.4C947.6,648.8,943.3,644.6,938.1,644.6z"/>
	<path fill="#F4E9D8" d="M901.2,616h-6.6c0.1,0.4,0.1,0.8,0.1,1.2v17.6h6.4c5.2,0,9.4-4.2,9.4-9.4C910.6,620.2,906.4,616,901.2,616z
		"/>
	<rect x="923.1" y="615.1" fill="#523B80" width="325.3" height="284.7"/>
	<rect x="906.3" y="347.4" fill="#F4E9D8" width="32.4" height="74.3"/>
	<path fill="#F7901E" d="M913.2,378.3c1.5,13.7,13.2,24.3,27.3,24.3c14.1,0,25.7-10.6,27.3-24.3H913.2z"/>
	<path fill="#F7901E" d="M994.5,378.3c1.5,13.7,13.2,24.3,27.3,24.3c14.1,0,25.7-10.6,27.3-24.3H994.5z"/>
	<rect x="893.8" y="616" fill="#F4E9D8" width="29.3" height="104.2"/>
	<path fill="#43316D" d="M999.8,411.7l-18.6-33.4l-18.6,33.4C975,411.7,987.4,411.7,999.8,411.7z"/>
	<line fill="none" stroke="#43316D" stroke-width="3" stroke-miterlimit="10" x1="996.7" y1="757.4" x2="996.7" y2="917.7"/>
	<line fill="none" stroke="#43316D" stroke-width="3" stroke-miterlimit="10" x1="1077.6" y1="757.4" x2="1077.6" y2="917.7"/>
	<line fill="none" stroke="#43316D" stroke-width="3" stroke-miterlimit="10" x1="1159.4" y1="757.4" x2="1159.4" y2="917.7"/>
	<path fill="#43316D" d="M993.4,243.5c-23.1,7.5-45.1,15.7-64.2,24.3h111L993.4,243.5z"/>
	<g>
		<path fill="#523B80" d="M996.2,242c-0.9,0.5-1.9,1-2.8,1.5l46.8,24.3h-111c-22.5,10.2-40.9,21-52.1,32.2c-2.7,2.7-5.3,5.5-7.8,8.4
			c9.2-1.5,18.7-2.2,28.4-2.2c6.9,0,13.6,0.4,20.3,1.2c9.6,1.1,18.9,2.9,27.9,5.4c31,8.6,58.7,25.4,80.6,47.8c0.3,0.3,0.6,0.7,1,1
			c4.5,4.7,8.8,9.6,12.8,14.8c0.2,0.3,0.4,0.6,0.7,0.9c1.8,2.3,3.5,4.7,5.1,7.1c7.4,10.7,13.6,22.2,18.6,34.3
			c8.3,20.5,12.9,42.8,13.1,66.2h26.4c5.2-16.3,10.7-33.1,16.3-50.2v-285C1119.8,150,1074.4,239,996.2,242z"/>
	</g>
	<path fill="#F4E9D8" d="M1040.5,267.2c-134.5-51.4-308.1-25.1-308.1-25.1v-86.8C732.4,155.3,948.7,147.2,1040.5,267.2z"/>
	<circle fill="#7A5BA6" cx="757.4" cy="178.2" r="6.9"/>
	<circle fill="#7A5BA6" cx="757.4" cy="216.1" r="6.9"/>
	<rect x="675.7" y="490" fill="#F4E9D8" width="89.5" height="18.1"/>
	<rect x="675.7" y="528.3" fill="#F4E9D8" width="89.5" height="18.1"/>
	<rect x="675.7" y="566.2" fill="#F4E9D8" width="89.5" height="18.1"/>
	<rect x="788.8" y="614.3" fill="#F4E9D8" width="89.5" height="18.1"/>
	<rect x="844.9" y="655.3" fill="#F4E9D8" width="33" height="18.1"/>
	<rect x="844.9" y="700.1" fill="#F4E9D8" width="33" height="18.1"/>
	<circle fill="#43316D" cx="959.9" cy="445.1" r="12.4"/>
	<circle fill="#43316D" cx="1006.9" cy="445.1" r="12.4"/>
</g>
<g id="Page">
	<path fill="#876BAF" d="M448.3,172.6H49.6V838h514.2V287.6C525.1,249.5,486.8,210.9,448.3,172.6z"/>
	<polygon fill="#9580BB" points="563.8,287.6 448.3,287.6 448.3,172.6 	"/>
</g>
<g id="Text">
	<g>
		<text transform="matrix(1 0 0 1 171.0972 383.1421)"><tspan x="0" y="0" fill="#F4E9D8" font-family="'DINAlternate-Bold'" font-size="173" letter-spacing="3">4</tspan><tspan x="92.2" y="0" fill="#F4E9D8" font-family="'DINAlternate-Bold'" font-size="173">04</tspan></text>
	</g>
	<g>
		
			<text transform="matrix(1 0 0 1 221.8721 442.8975)" fill="#F7901E" font-family="'HelveticaNeue-Bold'" font-size="28.2482" letter-spacing="2">UH OH!</text>
	</g>
	<g>
		<text transform="matrix(1 0 0 1 179.1147 478.3965)"><tspan x="0" y="0" fill="#F4E9D8" font-family="'HelveticaNeue'" font-size="28">Looks like that page</tspan><tspan x="48.5" y="33.6" fill="#F4E9D8" font-family="'HelveticaNeue'" font-size="28">bit the dust.</tspan></text>
	</g>
	<rect x="156.7" y="667.8" fill="#F7901E" width="289" height="103.2"/>
	<g>
		
			<text transform="matrix(1 0 0 1 205.21 727.7295)" fill="#F4E9D8" font-family="'HelveticaNeue-Bold'" font-size="28.2482" letter-spacing="2">BACK HOME</text>
	</g>
	<text transform="matrix(1 0 0 1 220.5005 584.9824)"><tspan x="0" y="0" fill="#F4E9D8" font-family="'HelveticaNeue'" font-size="15">Before rigamortis sets in,</tspan><tspan x="21.9" y="22" fill="#F4E9D8" font-family="'HelveticaNeue'" font-size="15">why don’t you go </tspan><tspan x="-25.1" y="44" fill="#F4E9D8" font-family="'HelveticaNeue'" font-size="15">back to the homepage try again.</tspan></text>
</g>
</svg>
