<?xml version="1.0" encoding="utf-8"?>
<!-- Generator: Adobe Illustrator 18.1.0, SVG Export Plug-In . SVG Version: 6.00 Build 0)  -->
<!DOCTYPE svg PUBLIC "-//W3C//DTD SVG 1.1//EN" "http://www.w3.org/Graphics/SVG/1.1/DTD/svg11.dtd">
<svg version="1.1" id="Layer_1" xmlns="http://www.w3.org/2000/svg" xmlns:xlink="http://www.w3.org/1999/xlink" x="0px" y="0px"
	 viewBox="0 0 775.9 847.6" enable-background="new 0 0 775.9 847.6" xml:space="preserve">
<g>
	<g>
		<path fill="#523B80" d="M205,587.5C92.7,587.5,1.4,496.2,1.4,383.9S92.7,180.2,205,180.2v104.2c-54.8,0-99.5,44.6-99.5,99.5
			c0,54.8,44.6,99.5,99.5,99.5V587.5z"/>
	</g>
	<line fill="none" stroke="#43316D" stroke-width="3" stroke-miterlimit="10" x1="138.6" y1="309.6" x2="64.9" y2="232.3"/>
	<line fill="none" stroke="#43316D" stroke-width="3" stroke-miterlimit="10" x1="74" y1="538.4" x2="151.2" y2="464.7"/>
	<line fill="none" stroke="#43316D" stroke-width="3" stroke-miterlimit="10" x1="109.1" y1="398.3" x2="0" y2="400.8"/>
	<line fill="none" stroke="#F4E9D8" stroke-width="2.1229" stroke-miterlimit="10" x1="366.2" y1="47.9" x2="392.8" y2="8.4"/>
	<line fill="none" stroke="#F4E9D8" stroke-width="2.1229" stroke-miterlimit="10" x1="309.4" y1="58" x2="269.8" y2="31.4"/>
	<line fill="none" stroke="#F4E9D8" stroke-width="2.1229" stroke-miterlimit="10" x1="336.8" y1="47" x2="327.7" y2="0.2"/>
	<rect x="185.4" y="414.8" fill="#F4E9D8" width="385.9" height="432.8"/>
	
		<rect x="293.7" y="203.9" transform="matrix(0.9813 -0.1924 0.1924 0.9813 -49.544 79.9102)" fill="#F4E9D8" width="185.9" height="182.3"/>
	<g>
		<path fill="#F7901E" d="M343.4,264.1l10.3,52.7c14.6-2.9,24-17,21.2-31.5C372.1,270.7,358,261.2,343.4,264.1z"/>
		<path fill="#523B80" d="M322.2,295.6c2.9,14.6,17,24,31.5,21.2l-10.3-52.7C328.8,266.9,319.4,281,322.2,295.6z"/>
	</g>
	<g>
		<path fill="#F7901E" d="M407.2,293.9l38.5-37.5c-10.3-10.6-27.3-10.9-38-0.5C397.1,266.2,396.9,283.2,407.2,293.9z"/>
		<path fill="#523B80" d="M445.2,294.4c10.6-10.3,10.9-27.3,0.5-38l-38.5,37.5C417.6,304.5,434.6,304.7,445.2,294.4z"/>
	</g>
	<path fill="none" stroke="#F4E9D8" stroke-width="106" stroke-miterlimit="10" d="M363,386.2"/>
	<path fill="none" stroke="#F7901E" stroke-width="85" stroke-miterlimit="10" d="M249.7,291.1c-34.4,0-62.3-27.9-62.3-62.3
		c0-34.4,27.9-62.3,62.3-62.3"/>
	<rect x="297.2" y="483" fill="#523B80" width="28" height="28"/>
	<circle fill="#7A5BA6" cx="287.6" cy="520.6" r="39.9"/>
	<rect x="358.7" y="480.4" fill="#7A5BA6" width="55" height="55"/>
	<rect x="413.7" y="480.4" fill="#F7901E" width="55" height="55"/>
	<rect x="358.7" y="589.9" fill="#F7901E" width="55" height="55"/>
	<rect x="468.7" y="589.9" fill="#F7901E" width="55" height="55"/>
	<rect x="468.7" y="480.4" fill="#523B80" width="55" height="55"/>
	<rect x="463.9" y="534.9" fill="#7A5BA6" width="59.8" height="55"/>
	<rect x="413.7" y="534.9" fill="#7A5BA6" width="55" height="55"/>
	<rect x="358.7" y="534.9" fill="#523B80" width="55" height="55"/>
	<rect x="412.7" y="589.9" fill="#523B80" width="55" height="55"/>
	<path fill="#7A5BA6" d="M461.1,330c1.8,9.1-4.1,17.9-13.2,19.7l-95.3,18.7c-9.1,1.8-17.9-4.1-19.7-13.2l0,0
		c-1.8-9.1,4.1-17.9,13.2-19.7l95.3-18.7C450.6,315,459.4,320.9,461.1,330L461.1,330z"/>
	<line fill="none" stroke="#43316D" stroke-width="3" stroke-miterlimit="10" x1="369.2" y1="205.6" x2="345.9" y2="86.9"/>
	<g>
		<path fill="#523B80" d="M572.2,520c112.3,0,203.7-91.4,203.7-203.7c0-112.3-91.4-203.7-203.7-203.7v104.2
			c54.8,0,99.5,44.6,99.5,99.5c0,54.8-44.6,99.5-99.5,99.5V520z"/>
	</g>
	<path fill="none" stroke="#F7901E" stroke-width="85" stroke-miterlimit="10" d="M507.6,221.6c34.4,0,62.3-27.9,62.3-62.3
		c0-34.4-27.9-62.3-62.3-62.3"/>
	<line fill="none" stroke="#43316D" stroke-width="3" stroke-miterlimit="10" x1="638.6" y1="242.1" x2="712.3" y2="164.8"/>
	<line fill="none" stroke="#43316D" stroke-width="3" stroke-miterlimit="10" x1="703.3" y1="470.9" x2="626" y2="397.2"/>
	<circle fill="#F7901E" cx="346.8" cy="95.7" r="25.7"/>
</g>
</svg>
