<?xml version="1.0" encoding="utf-8"?>
<!-- Generator: Adobe Illustrator 18.1.0, SVG Export Plug-In . SVG Version: 6.00 Build 0)  -->
<!DOCTYPE svg PUBLIC "-//W3C//DTD SVG 1.1//EN" "http://www.w3.org/Graphics/SVG/1.1/DTD/svg11.dtd">
<svg version="1.1" xmlns="http://www.w3.org/2000/svg" xmlns:xlink="http://www.w3.org/1999/xlink" x="0px" y="0px"
	 viewBox="0 0 1400 900" enable-background="new 0 0 1400 900" xml:space="preserve">
<g id="Bg">
	<rect x="-2.8" y="-2.8" fill="#7A5BA6" width="1402.8" height="920.5"/>
</g>
<g id="Page">
	<path fill="#876BAF" d="M448.3,172.6H49.6V838h514.2V287.6C525.1,249.5,486.8,210.9,448.3,172.6z"/>
	<polygon fill="#9580BB" points="563.8,287.6 448.3,287.6 448.3,172.6 	"/>
</g>
<g id="Text">
	<g>
		<text transform="matrix(1 0 0 1 168.0948 383.1421)" fill="#F4E9D8" font-family="'DINAlternate-Bold'" font-size="173">500</text>
	</g>
	<g>
		
			<text transform="matrix(1 0 0 1 178.8376 442.8975)" fill="#F7901E" font-family="'HelveticaNeue-Bold'" font-size="28.2482" letter-spacing="2">MALFUNCTION!</text>
	</g>
	<g>
		<text transform="matrix(1 0 0 1 154.0547 478.3965)"><tspan x="0" y="0" fill="#F4E9D8" font-family="'HelveticaNeue'" font-size="28">Something went wrong,</tspan><tspan x="55.4" y="33.6" fill="#F4E9D8" font-family="'HelveticaNeue'" font-size="28">but we’re on it.</tspan></text>
	</g>
	<rect x="156.7" y="667.8" fill="#F7901E" width="289" height="103.2"/>
	<g>
		
			<text transform="matrix(1 0 0 1 193.2002 727.7295)" fill="#F4E9D8" font-family="'HelveticaNeue-Bold'" font-size="28.2482" letter-spacing="2">CHECK BACK</text>
	</g>
	<text transform="matrix(1 0 0 1 204.376 584.9824)"><tspan x="0" y="0" fill="#F4E9D8" font-family="'HelveticaNeue'" font-size="15">While we get out the toolbox,</tspan><tspan x="50.2" y="22" fill="#F4E9D8" font-family="'HelveticaNeue'" font-size="15">why don’t you</tspan><tspan x="-35.1" y="44" fill="#F4E9D8" font-family="'HelveticaNeue'" font-size="15">go back to the homepage and try again?</tspan></text>
</g>
<g id="Robot">
	<g>
		<path fill="#523B80" d="M805,667.9c-112.3,0-203.7-91.4-203.7-203.7S692.7,260.6,805,260.6v104.2c-54.8,0-99.5,44.6-99.5,99.5
			c0,54.8,44.6,99.5,99.5,99.5V667.9z"/>
	</g>
	<line fill="none" stroke="#43316D" stroke-width="3" stroke-miterlimit="10" x1="738.6" y1="390" x2="664.9" y2="312.7"/>
	<line fill="none" stroke="#43316D" stroke-width="3" stroke-miterlimit="10" x1="673.9" y1="618.8" x2="751.2" y2="545.1"/>
	<line fill="none" stroke="#43316D" stroke-width="3" stroke-miterlimit="10" x1="709.1" y1="478.7" x2="600" y2="481.2"/>
	<line fill="none" stroke="#F4E9D8" stroke-width="2.1229" stroke-miterlimit="10" x1="966.1" y1="128.4" x2="992.7" y2="88.8"/>
	<line fill="none" stroke="#F4E9D8" stroke-width="2.1229" stroke-miterlimit="10" x1="909.3" y1="138.4" x2="869.8" y2="111.8"/>
	<line fill="none" stroke="#F4E9D8" stroke-width="2.1229" stroke-miterlimit="10" x1="936.8" y1="127.4" x2="927.6" y2="80.6"/>
	<rect x="785.3" y="495.2" fill="#F4E9D8" width="385.9" height="432.8"/>
	
		<rect x="893.7" y="284.3" transform="matrix(0.9813 -0.1924 0.1924 0.9813 -53.8067 196.8414)" fill="#F4E9D8" width="185.9" height="182.3"/>
	<g>
		<path fill="#F7901E" d="M943.3,344.5l10.3,52.7c14.6-2.9,24-17,21.2-31.5C972,351.1,957.9,341.6,943.3,344.5z"/>
		<path fill="#523B80" d="M922.2,376c2.9,14.6,17,24,31.5,21.2l-10.3-52.7C928.8,347.3,919.3,361.4,922.2,376z"/>
	</g>
	<g>
		<path fill="#F7901E" d="M1007.2,374.3l38.5-37.5c-10.3-10.6-27.3-10.9-38-0.5C997,346.7,996.8,363.7,1007.2,374.3z"/>
		<path fill="#523B80" d="M1045.1,374.8c10.6-10.3,10.9-27.3,0.5-38l-38.5,37.5C1017.5,384.9,1034.5,385.1,1045.1,374.8z"/>
	</g>
	<path fill="none" stroke="#F4E9D8" stroke-width="106" stroke-miterlimit="10" d="M963,466.6"/>
	<path fill="none" stroke="#F7901E" stroke-width="85" stroke-miterlimit="10" d="M849.6,371.5c-34.4,0-62.3-27.9-62.3-62.3
		c0-34.4,27.9-62.3,62.3-62.3"/>
	<rect x="897.1" y="563.4" fill="#523B80" width="28" height="28"/>
	<circle fill="#7A5BA6" cx="887.5" cy="601" r="39.9"/>
	<rect x="958.6" y="560.8" fill="#7A5BA6" width="55" height="55"/>
	<rect x="1013.6" y="560.8" fill="#F7901E" width="55" height="55"/>
	<rect x="958.6" y="670.3" fill="#F7901E" width="55" height="55"/>
	<rect x="1068.6" y="670.3" fill="#F7901E" width="55" height="55"/>
	<rect x="1068.6" y="560.8" fill="#523B80" width="55" height="55"/>
	<rect x="1063.9" y="615.3" fill="#7A5BA6" width="59.8" height="55"/>
	<rect x="1013.6" y="615.3" fill="#7A5BA6" width="55" height="55"/>
	<rect x="958.6" y="615.3" fill="#523B80" width="55" height="55"/>
	<rect x="1012.7" y="670.4" fill="#523B80" width="55" height="55"/>
	<path fill="#7A5BA6" d="M1061.1,410.4c1.8,9.1-4.1,17.9-13.2,19.7l-95.3,18.7c-9.1,1.8-17.9-4.1-19.7-13.2l0,0
		c-1.8-9.1,4.1-17.9,13.2-19.7l95.3-18.7C1050.5,395.4,1059.3,401.3,1061.1,410.4L1061.1,410.4z"/>
	<line fill="none" stroke="#43316D" stroke-width="3" stroke-miterlimit="10" x1="969.1" y1="286" x2="945.8" y2="167.3"/>
	<g>
		<path fill="#523B80" d="M1172.1,600.4c112.3,0,203.7-91.4,203.7-203.7c0-112.3-91.4-203.7-203.7-203.7v104.2
			c54.8,0,99.5,44.6,99.5,99.5c0,54.8-44.6,99.5-99.5,99.5V600.4z"/>
	</g>
	<path fill="none" stroke="#F7901E" stroke-width="85" stroke-miterlimit="10" d="M1107.5,302.1c34.4,0,62.3-27.9,62.3-62.3
		c0-34.4-27.9-62.3-62.3-62.3"/>
	<line fill="none" stroke="#43316D" stroke-width="3" stroke-miterlimit="10" x1="1238.5" y1="322.5" x2="1312.3" y2="245.2"/>
	<line fill="none" stroke="#43316D" stroke-width="3" stroke-miterlimit="10" x1="1303.2" y1="551.3" x2="1225.9" y2="477.6"/>
	<circle fill="#F7901E" cx="946.7" cy="176.1" r="25.7"/>
</g>
</svg>
