<?xml version="1.0" encoding="utf-8"?>
<!-- Generator: Adobe Illustrator 18.1.0, SVG Export Plug-In . SVG Version: 6.00 Build 0)  -->
<!DOCTYPE svg PUBLIC "-//W3C//DTD SVG 1.1//EN" "http://www.w3.org/Graphics/SVG/1.1/DTD/svg11.dtd">
<svg version="1.1" id="Layer_1" xmlns="http://www.w3.org/2000/svg" xmlns:xlink="http://www.w3.org/1999/xlink" x="0px" y="0px"
	 viewBox="0 0 746.5 777.2" enable-background="new 0 0 746.5 777.2" xml:space="preserve">
<g>
	<g>
		<path fill="#F4E9D8" d="M487.4,696.1V219.8c0-9.1-1.9-17.7-5.4-25.5c-6.4,2.6-13.3,4-20.6,4c-14.3,0-27.3-5.4-37-14.3
			c-9.8,8.9-22.8,14.3-37,14.3c-7.2,0-14-1.4-20.3-3.9c-3.4,7.8-5.4,16.3-5.4,25.4v476.4H487.4z"/>
		<path fill="#F7901E" d="M440.2,158.9c-5-1.3-10.2-2-15.6-2c-5.5,0-10.8,0.7-15.9,2c-18.7,4.9-33.9,18.1-41.6,35.4
			c6.3,2.5,13.1,3.9,20.3,3.9c14.3,0,27.3-5.4,37-14.3c9.8,8.9,22.8,14.3,37,14.3c7.3,0,14.2-1.4,20.6-4
			C474.3,176.9,458.9,163.7,440.2,158.9z"/>
	</g>
	<rect x="256.2" y="338.2" fill="#523B80" width="318.1" height="439"/>
	<g>
		<path fill="#F7901E" d="M503.8,627.2v-28.7H483c-1.6-6.6-4.3-12.9-7.8-18.5l14.8-14.8l-20.3-20.3l-14.6,14.6
			c-5.7-3.7-12-6.5-18.8-8.3v-20.2h-28.7v19.2c-7.3,1.4-14.2,4-20.4,7.6l-13-13l-20.3,20.3l12.2,12.2c-4.3,6.3-7.6,13.5-9.5,21.1
			l-16.6,0l0,28.7l16,0c1.6,8,4.8,15.5,9.1,22.1l-11.3,11.3l20.3,20.3l11.4-11.4c6.6,4.1,14,7,21.9,8.5l0,16.7l28.7,0l0-17.7
			c7.3-1.9,14.2-5.1,20.2-9.3l13.1,13.1l20.3-20.3l-13.9-13.9c3.5-6,6-12.5,7.5-19.5H503.8z M422.1,645.8
			c-18.1,0-32.9-14.7-32.9-32.9c0-18.1,14.7-32.9,32.9-32.9c18.1,0,32.9,14.7,32.9,32.9C454.9,631.1,440.2,645.8,422.1,645.8z"/>
	</g>
	<path fill="#F4E9D8" d="M174.1,298.4c-4,4-10.5,4-14.6,0l0,0c5.4,5.2,5.4-19.8,0-14.6l49.4-49.4c4-4,10.5-4,14.6,0l0,0
		c4,4,4,10.5,0,14.6L174.1,298.4z"/>
	<circle fill="#7A5BA6" cx="377.4" cy="256.1" r="10"/>
	<circle fill="#7A5BA6" cx="473.4" cy="256.1" r="10"/>
	<rect x="53.5" y="287.7" fill="#523B80" width="132" height="183.7"/>
	<rect x="139.7" y="338.2" fill="#523B80" width="143.9" height="133.2"/>
	<g>
		<path fill="#43316D" d="M574.1,338.5v139.8c20,6.7,34.5,25.6,34.5,47.8c0,22.3-14.5,41.2-34.6,47.8v139.8
			c96.5-8,172.6-89.1,172.6-187.6C746.5,427.7,670.5,346.6,574.1,338.5z"/>
	</g>
	<polygon fill="#43316D" points="256.2,415.1 256.2,471.4 211.6,471.4 	"/>
	<circle fill="none" stroke="#F7901E" stroke-width="17" stroke-miterlimit="10" cx="376.4" cy="256.1" r="36.9"/>
	<circle fill="none" stroke="#F7901E" stroke-width="17" stroke-miterlimit="10" cx="473.8" cy="256.1" r="36.9"/>
	<line fill="none" stroke="#F7901E" stroke-width="17" stroke-miterlimit="10" x1="409.2" y1="256.1" x2="441.3" y2="256.1"/>
	<polygon fill="#3C3066" points="385.2,352.5 423.5,390.8 385.2,429.1 	"/>
	<polygon fill="#3C3066" points="462.3,429.1 424,390.8 462.3,352.5 	"/>
	<path fill="#F4E9D8" d="M525.8,574.1c5.2,0,9.4,4.2,9.4,9.4l0,0c0,5.2-4.2,9.4-9.4,9.4h-63.4c-5.2,0-9.4-4.2-9.4-9.4l0,0
		c0-5.2,4.2-9.4,9.4-9.4H525.8z"/>
	<path fill="#F4E9D8" d="M491.7,604.2c5.2,0,9.4,4.2,9.4,9.3l0,0c0,5.2-4.2,9.4-9.4,9.4h-63.4c-5.2,0-9.4-4.2-9.4-9.4l0,0
		c0-5.2,4.2-9.3,9.4-9.3H491.7z"/>
	<path fill="#F4E9D8" d="M491.7,634.3c5.2,0,9.4,4.2,9.4,9.4l0,0c0,5.2-4.2,9.4-9.4,9.4h-63.4c-5.2,0-9.4-4.2-9.4-9.4l0,0
		c0-5.2,4.2-9.4,9.4-9.4H491.7z"/>
	<path fill="#F4E9D8" d="M491.7,664.4c5.2,0,9.4,4.2,9.4,9.4l0,0c0,5.2-4.2,9.4-9.4,9.4h-63.4c-5.2,0-9.4-4.2-9.4-9.4l0,0
		c0-5.2,4.2-9.4,9.4-9.4H491.7z"/>
	<path fill="#F4E9D8" d="M491.7,694.5c5.2,0,9.4,4.2,9.4,9.4l0,0c0,5.2-4.2,9.4-9.4,9.4h-63.4c-5.2,0-9.4-4.2-9.4-9.4l0,0
		c0-5.2,4.2-9.4,9.4-9.4H491.7z"/>
	<rect x="482.3" y="574.1" fill="#F4E9D8" width="92.1" height="139.1"/>
	<circle fill="#F4E9D8" cx="601.5" cy="604.2" r="10"/>
	<circle fill="#F4E9D8" cx="425.1" cy="440.1" r="10"/>
	<circle fill="#F4E9D8" cx="425.1" cy="494.3" r="10"/>
	<circle fill="#F4E9D8" cx="425.1" cy="744.3" r="10"/>
	<circle fill="#F4E9D8" cx="86.4" cy="321.3" r="10"/>
	<g>
		
			<rect x="64" y="45.2" transform="matrix(0.9768 0.214 -0.214 0.9768 20.6641 -29.9052)" fill="#F7901E" width="169" height="70.6"/>
		<g>
			<g>
				<path fill="#F7901E" d="M275.3,83.5l59,12.9c-4.5-23.2-22.4-42.7-46.9-48.1c-33-7.2-65.6,13.7-72.8,46.6
					c-7.2,33,13.7,65.6,46.6,72.8c24.4,5.3,48.6-4.7,62.4-23.7l-58.9-12.9L275.3,83.5z"/>
			</g>
		</g>
		<g>
			<g>
				<path fill="#F7901E" d="M59,85.7L0,72.8c4.5,23.2,22.4,42.7,46.9,48.1c33,7.2,65.6-13.7,72.8-46.6c7.2-33-13.7-65.6-46.6-72.8
					C48.7-3.9,24.5,6.1,10.6,25.1L69.5,38L59,85.7z"/>
			</g>
		</g>
	</g>
	<path fill="#F4E9D8" d="M150.5,257.9c0,5.7-4.7,10.4-10.4,10.4l0,0c-5.8,0-10.4-4.7-10.4-10.4v-80.6c0-5.8,4.7-10.4,10.4-10.4l0,0
		c5.8,0,10.4,4.7,10.4,10.4V257.9z"/>
	<path fill="#F4E9D8" d="M111.3,257.9c0,5.7-4.7,10.4-10.4,10.4l0,0c-5.8,0-10.4-4.7-10.4-10.4v-80.6c0-5.8,4.7-10.4,10.4-10.4l0,0
		c5.8,0,10.4,4.7,10.4,10.4V257.9z"/>
	<path fill="#F4E9D8" d="M74.3,257.9c0,5.7-4.7,10.4-10.4,10.4l0,0c-5.7,0-10.4-4.7-10.4-10.4v-80.6c0-5.8,4.7-10.4,10.4-10.4l0,0
		c5.8,0,10.4,4.7,10.4,10.4V257.9z"/>
	<path fill="#F4E9D8" d="M186,272.4c0,5.7-4.7-58.2-10.4-58.2l0,0c-5.8,0-10.4-4.7-10.4-10.4v-70.6c0-5.8,4.7-10.4,10.4-10.4l0,0
		c5.8,0,10.4,4.7,10.4,10.4V272.4z"/>
	<g>
		<path fill="#F4E9D8" d="M177.6,213.9c-5.8,0-10.4-4.7-10.4-10.4v-5.1H53.5v89.4h132v-77.6C183.6,212.4,180.8,213.9,177.6,213.9z"
			/>
	</g>
	<polyline fill="none" stroke="#F7901E" stroke-width="2" stroke-miterlimit="10" points="455.1,120.1 425.9,149 396.8,119.9 	"/>
	<line fill="none" stroke="#F7901E" stroke-width="2" stroke-miterlimit="10" x1="425.9" y1="149.1" x2="425.9" y2="107.9"/>
	<path fill="#7A5BA6" d="M403.3,306.7c1.2,10.9,10.5,19.4,21.7,19.4c11.2,0,20.5-8.5,21.7-19.4H403.3z"/>
</g>
</svg>
