<?xml version="1.0" encoding="utf-8"?>
<!-- Generator: Adobe Illustrator 18.1.0, SVG Export Plug-In . SVG Version: 6.00 Build 0)  -->
<!DOCTYPE svg PUBLIC "-//W3C//DTD SVG 1.1//EN" "http://www.w3.org/Graphics/SVG/1.1/DTD/svg11.dtd">
<svg version="1.1" xmlns="http://www.w3.org/2000/svg" xmlns:xlink="http://www.w3.org/1999/xlink" x="0px" y="0px"
	 viewBox="0 0 1400 900" enable-background="new 0 0 1400 900" xml:space="preserve">
<g id="Background">
	<rect x="-2.8" y="-2.8" fill="#7A5BA6" width="1402.8" height="920.5"/>
</g>
<g id="Page">
	<path fill="#876BAF" d="M448.3,172.6H49.6V838h514.2V287.6C525.1,249.5,486.8,210.9,448.3,172.6z"/>
	<polygon fill="#9580BB" points="563.8,287.6 448.3,287.6 448.3,172.6 	"/>
</g>
<g id="Text">
	<g>
		<text transform="matrix(1 0 0 1 171.0972 383.1421)" fill="#F4E9D8" font-family="'DINAlternate-Bold'" font-size="173">503</text>
	</g>
	<g>
		
			<text transform="matrix(1 0 0 1 243.8897 442.8975)" fill="#F7901E" font-family="'HelveticaNeue-Bold'" font-size="28.2482" letter-spacing="2">OOPS!</text>
	</g>
	<g>
		<text transform="matrix(1 0 0 1 190.8887 478.3965)"><tspan x="0" y="0" fill="#F4E9D8" font-family="'HelveticaNeue'" font-size="28">This site is getting</tspan><tspan x="47.8" y="33.6" fill="#F4E9D8" font-family="'HelveticaNeue'" font-size="28">a tune-up.</tspan></text>
	</g>
	<rect x="180.4" y="667.8" fill="#F7901E" width="237.6" height="103.2"/>
	<g>
		
			<text transform="matrix(1 0 0 1 236.2348 727.7295)" fill="#F4E9D8" font-family="'HelveticaNeue-Bold'" font-size="28.2482" letter-spacing="2">THANKS</text>
	</g>
	<text transform="matrix(1 0 0 1 208.8228 584.9824)"><tspan x="0" y="0" fill="#F4E9D8" font-family="'HelveticaNeue'" font-size="15">Why don’t you come back in</tspan><tspan x="23.9" y="22" fill="#F4E9D8" font-family="'HelveticaNeue'" font-size="15">a little while and see </tspan><tspan x="-23.5" y="44" fill="#F4E9D8" font-family="'HelveticaNeue'" font-size="15">if our experts are finished tinkering.</tspan></text>
</g>
<g id="guy">
	<g>
		<g>
			<path fill="#F4E9D8" d="M1111.2,819.7V343.4c0-9.1-1.9-17.7-5.4-25.5c-6.4,2.6-13.3,4-20.6,4c-14.3,0-27.3-5.4-37-14.3
				c-9.8,8.9-22.8,14.3-37,14.3c-7.2,0-14-1.4-20.3-3.9c-3.4,7.8-5.4,16.3-5.4,25.4v476.4H1111.2z"/>
			<path fill="#F7901E" d="M1063.9,282.5c-5-1.3-10.2-2-15.6-2c-5.5,0-10.8,0.7-15.9,2c-18.7,4.9-33.9,18.1-41.6,35.4
				c6.3,2.5,13.1,3.9,20.3,3.9c14.3,0,27.3-5.4,37-14.3c9.8,8.9,22.8,14.3,37,14.3c7.3,0,14.2-1.4,20.6-4
				C1098,300.5,1082.7,287.3,1063.9,282.5z"/>
		</g>
		<rect x="880" y="461.8" fill="#523B80" width="318.1" height="439"/>
		<g>
			<path fill="#F7901E" d="M1127.6,750.8v-28.7h-20.8c-1.6-6.6-4.3-12.9-7.8-18.5l14.8-14.8l-20.3-20.3l-14.6,14.6
				c-5.7-3.7-12-6.5-18.8-8.3v-20.2h-28.7v19.2c-7.3,1.4-14.2,4-20.4,7.6l-13-13l-20.3,20.3l12.2,12.2c-4.3,6.3-7.6,13.5-9.5,21.1
				l-16.6,0l0,28.7l16,0c1.6,8,4.8,15.5,9.1,22.1l-11.3,11.3l20.3,20.3l11.4-11.4c6.6,4.1,14,7,21.9,8.5l0,16.7l28.7,0l0-17.7
				c7.3-1.9,14.2-5.1,20.2-9.3l13.1,13.1l20.3-20.3l-13.9-13.9c3.5-6,6-12.5,7.5-19.5H1127.6z M1045.8,769.4
				c-18.1,0-32.9-14.7-32.9-32.9s14.7-32.9,32.9-32.9s32.9,14.7,32.9,32.9S1064,769.4,1045.8,769.4z"/>
		</g>
		<path fill="#F4E9D8" d="M797.8,422c-4,4-10.5,4-14.6,0l0,0c5.4,5.2,5.4-19.8,0-14.6l49.4-49.4c4-4,10.5-4,14.6,0l0,0
			c4,4,4,10.5,0,14.6L797.8,422z"/>
		<circle fill="#7A5BA6" cx="1001.2" cy="379.7" r="10"/>
		<circle fill="#7A5BA6" cx="1097.2" cy="379.7" r="10"/>
		<rect x="677.2" y="411.3" fill="#523B80" width="132" height="183.7"/>
		<rect x="763.4" y="461.8" fill="#523B80" width="143.9" height="133.2"/>
		<g>
			<path fill="#43316D" d="M1197.8,462.1V602c20,6.7,34.5,25.6,34.5,47.8c0,22.3-14.5,41.2-34.6,47.8v139.8
				c96.5-8,172.6-89.1,172.6-187.6C1370.2,551.3,1294.3,470.2,1197.8,462.1z"/>
		</g>
		<polygon fill="#43316D" points="880,538.7 880,595 835.4,595 		"/>
		<circle fill="none" stroke="#F7901E" stroke-width="17" stroke-miterlimit="10" cx="1000.1" cy="379.7" r="36.9"/>
		<circle fill="none" stroke="#F7901E" stroke-width="17" stroke-miterlimit="10" cx="1097.5" cy="379.7" r="36.9"/>
		<line fill="none" stroke="#F7901E" stroke-width="17" stroke-miterlimit="10" x1="1033" y1="379.7" x2="1065" y2="379.7"/>
		<polygon fill="#3C3066" points="1009,476.1 1047.3,514.4 1009,552.7 		"/>
		<polygon fill="#3C3066" points="1086,552.7 1047.7,514.4 1086,476.1 		"/>
		<path fill="#F4E9D8" d="M1149.5,697.7c5.2,0,9.4,4.2,9.4,9.4l0,0c0,5.2-4.2,9.4-9.4,9.4h-63.4c-5.2,0-9.4-4.2-9.4-9.4l0,0
			c0-5.2,4.2-9.4,9.4-9.4H1149.5z"/>
		<path fill="#F4E9D8" d="M1115.4,727.8c5.2,0,9.4,4.2,9.4,9.3l0,0c0,5.2-4.2,9.4-9.4,9.4H1052c-5.2,0-9.4-4.2-9.4-9.4l0,0
			c0-5.2,4.2-9.3,9.4-9.3H1115.4z"/>
		<path fill="#F4E9D8" d="M1115.4,757.9c5.2,0,9.4,4.2,9.4,9.4l0,0c0,5.2-4.2,9.4-9.4,9.4H1052c-5.2,0-9.4-4.2-9.4-9.4l0,0
			c0-5.2,4.2-9.4,9.4-9.4H1115.4z"/>
		<path fill="#F4E9D8" d="M1115.4,788c5.2,0,9.4,4.2,9.4,9.4l0,0c0,5.2-4.2,9.4-9.4,9.4H1052c-5.2,0-9.4-4.2-9.4-9.4l0,0
			c0-5.2,4.2-9.4,9.4-9.4H1115.4z"/>
		<path fill="#F4E9D8" d="M1115.4,818.1c5.2,0,9.4,4.2,9.4,9.4l0,0c0,5.2-4.2,9.4-9.4,9.4H1052c-5.2,0-9.4-4.2-9.4-9.4l0,0
			c0-5.2,4.2-9.4,9.4-9.4H1115.4z"/>
		<rect x="1106" y="697.7" fill="#F4E9D8" width="92.1" height="139.1"/>
		<circle fill="#F4E9D8" cx="1225.3" cy="727.8" r="10"/>
		<circle fill="#F4E9D8" cx="1048.8" cy="563.6" r="10"/>
		<circle fill="#F4E9D8" cx="1048.8" cy="617.9" r="10"/>
		<circle fill="#F4E9D8" cx="1048.8" cy="867.9" r="10"/>
		<circle fill="#F4E9D8" cx="710.2" cy="444.9" r="10"/>
		<g>
			
				<rect x="687.8" y="168.8" transform="matrix(0.9768 0.214 -0.214 0.9768 61.5507 -160.4996)" fill="#F7901E" width="169" height="70.6"/>
			<g>
				<g>
					<path fill="#F7901E" d="M899,207.1l59,12.9c-4.5-23.2-22.4-42.7-46.9-48.1c-33-7.2-65.6,13.7-72.8,46.6
						c-7.2,33,13.7,65.6,46.6,72.8c24.4,5.3,48.6-4.7,62.4-23.7l-58.9-12.9L899,207.1z"/>
				</g>
			</g>
			<g>
				<g>
					<path fill="#F7901E" d="M682.8,209.3l-59-12.9c4.5,23.2,22.4,42.7,46.9,48.1c33,7.2,65.6-13.7,72.8-46.6
						c7.2-33-13.7-65.6-46.6-72.8c-24.4-5.3-48.6,4.7-62.4,23.7l58.9,12.9L682.8,209.3z"/>
				</g>
			</g>
		</g>
		<path fill="#F4E9D8" d="M774.2,381.5c0,5.7-4.7,10.4-10.4,10.4l0,0c-5.8,0-10.4-4.7-10.4-10.4v-80.6c0-5.8,4.7-10.4,10.4-10.4l0,0
			c5.8,0,10.4,4.7,10.4,10.4V381.5z"/>
		<path fill="#F4E9D8" d="M735,381.5c0,5.7-4.7,10.4-10.4,10.4l0,0c-5.8,0-10.4-4.7-10.4-10.4v-80.6c0-5.8,4.7-10.4,10.4-10.4l0,0
			c5.8,0,10.4,4.7,10.4,10.4V381.5z"/>
		<path fill="#F4E9D8" d="M698,381.5c0,5.7-4.7,10.4-10.4,10.4l0,0c-5.7,0-10.4-4.7-10.4-10.4v-80.6c0-5.8,4.7-10.4,10.4-10.4l0,0
			c5.8,0,10.4,4.7,10.4,10.4V381.5z"/>
		<path fill="#F4E9D8" d="M809.7,396c0,5.7-4.7-58.2-10.4-58.2l0,0c-5.8,0-10.4-4.7-10.4-10.4v-70.6c0-5.7,4.7-10.4,10.4-10.4l0,0
			c5.8,0,10.4,4.7,10.4,10.4V396z"/>
		<g>
			<path fill="#F4E9D8" d="M801.3,337.4c-5.8,0-10.4-4.7-10.4-10.4v-5.1H677.2v89.4h132v-77.6C807.3,336,804.5,337.4,801.3,337.4z"
				/>
		</g>
		<polyline fill="none" stroke="#F7901E" stroke-width="2" stroke-miterlimit="10" points="1078.8,243.7 1049.6,272.6 1020.5,243.4 
					"/>
		<line fill="none" stroke="#F7901E" stroke-width="2" stroke-miterlimit="10" x1="1049.7" y1="272.7" x2="1049.7" y2="231.5"/>
		<path fill="#7A5BA6" d="M1027.1,430.3c1.2,10.9,10.5,19.4,21.7,19.4s20.5-8.5,21.7-19.4H1027.1z"/>
	</g>
</g>
</svg>
