<?xml version="1.0" encoding="utf-8"?>
<!-- Generator: Adobe Illustrator 18.1.0, SVG Export Plug-In . SVG Version: 6.00 Build 0)  -->
<!DOCTYPE svg PUBLIC "-//W3C//DTD SVG 1.1//EN" "http://www.w3.org/Graphics/SVG/1.1/DTD/svg11.dtd">
<svg version="1.1" xmlns="http://www.w3.org/2000/svg" xmlns:xlink="http://www.w3.org/1999/xlink" x="0px" y="0px"
	 viewBox="0 0 1400 900" enable-background="new 0 0 1400 900" xml:space="preserve">
<g id="Background">
	<rect x="-2.8" y="-2.8" fill="#7A5BA6" width="1402.8" height="920.5"/>
</g>
<g id="Page">
	<path fill="#876BAF" d="M448.3,172.6H49.6V838h514.2V287.6C525.1,249.5,486.8,210.9,448.3,172.6z"/>
	<polygon fill="#9580BB" points="563.8,287.6 448.3,287.6 448.3,172.6 	"/>
</g>
<g id="Text">
	<g>
		<text transform="matrix(1 0 0 1 171.0972 383.1421)"><tspan x="0" y="0" fill="#F4E9D8" font-family="'DINAlternate-Bold'" font-size="173" letter-spacing="3">4</tspan><tspan x="92.2" y="0" fill="#F4E9D8" font-family="'DINAlternate-Bold'" font-size="173">03</tspan></text>
	</g>
	<g>
		
			<text transform="matrix(1 0 0 1 221.8721 442.8975)" fill="#F7901E" font-family="'HelveticaNeue-Bold'" font-size="28.2482" letter-spacing="2">HOLD UP!</text>
	</g>
	<g>
		<text transform="matrix(1 0 0 1 160.3135 478.3965)" fill="#F4E9D8" font-family="'HelveticaNeue'" font-size="28">That page is forbidden.</text>
	</g>
	<rect x="156.7" y="667.8" fill="#F7901E" width="289" height="103.2"/>
	<g>
		
			<text transform="matrix(1 0 0 1 221.2227 727.7295)" fill="#F4E9D8" font-family="'HelveticaNeue-Bold'" font-size="28.2482" letter-spacing="2">UPGRADE</text>
	</g>
	<text transform="matrix(1 0 0 1 223.0508 584.9824)"><tspan x="0" y="0" fill="#F4E9D8" font-family="'HelveticaNeue'" font-size="15">You’ll probably need to </tspan><tspan x="-43.3" y="22" fill="#F4E9D8" font-family="'HelveticaNeue'" font-size="15">upgradeyour account if you’re gonna</tspan><tspan x="-15.4" y="44" fill="#F4E9D8" font-family="'HelveticaNeue'" font-size="15">get those kinds of privileges.</tspan></text>
</g>
<g id="Police_Man">
	<g>
		<path fill="#523B80" d="M1137,743.2c0,43.5-35.3,78.8-78.8,78.8l0,0c-43.5,0-78.8-35.3-78.8-78.8v-466c0-43.5,35.3-78.8,78.8-78.8
			l0,0c43.5,0,78.8,35.3,78.8,78.8V743.2z"/>
		<rect x="887.9" y="507.8" fill="#523B80" width="315.2" height="392.9"/>
		<rect x="665.4" y="457.9" fill="#523B80" width="152.4" height="189"/>
		<rect x="764.9" y="506.9" fill="#523B80" width="149.5" height="139.9"/>
		<path fill="#F4E9D8" d="M817.2,375.9c0,5.6-4.6,10.2-10.2,10.2l0,0c-5.6,0-10.2-4.6-10.2-10.2v-69.2c0-5.6,4.6-10.2,10.2-10.2l0,0
			c5.6,0,10.2,4.6,10.2,10.2V375.9z"/>
		<path fill="#F4E9D8" d="M784.3,338.6c0,5.6-4.6,10.2-10.2,10.2l0,0c-5.6,0-10.2-4.6-10.2-10.2v-69.2c0-5.6,4.6-10.2,10.2-10.2l0,0
			c5.6,0,10.2,4.6,10.2,10.2V338.6z"/>
		<path fill="#F4E9D8" d="M751.5,338.6c0,5.6-4.6,10.2-10.2,10.2l0,0c-5.6,0-10.2-4.6-10.2-10.2v-69.2c0-5.6,4.6-10.2,10.2-10.2l0,0
			c5.6,0,10.2,4.6,10.2,10.2V338.6z"/>
		<path fill="#F4E9D8" d="M718.6,338.6c0,5.6-4.6,10.2-10.2,10.2l0,0c-5.6,0-10.2-4.6-10.2-10.2v-69.2c0-5.6,4.6-10.2,10.2-10.2l0,0
			c5.6,0,10.2,4.6,10.2,10.2V338.6z"/>
		<path fill="#F4E9D8" d="M685.8,338.6c0,5.6-4.6,10.2-10.2,10.2l0,0c-5.6,0-10.2-4.6-10.2-10.2v-69.2c0-5.6,4.6-10.2,10.2-10.2l0,0
			c5.6,0,10.2,4.6,10.2,10.2V338.6z"/>
		<circle fill="#F4E9D8" cx="987.5" cy="445.5" r="51.6"/>
		<circle fill="#F4E9D8" cx="1127" cy="445.5" r="51.6"/>
		<rect x="1000.5" y="646.9" fill="#F7901E" width="137.3" height="47.9"/>
		<rect x="979.4" y="339.2" fill="#F4E9D8" width="158.3" height="168.6"/>
		<path fill="#F4E9D8" d="M1013.1,393.7c0.4,5.1,4.6,9.1,9.8,9.1s9.5-4,9.8-9.1H1013.1z"/>
		<circle fill="#F4E9D8" cx="1028.1" cy="671.8" r="9.9"/>
		<circle fill="#F4E9D8" cx="947" cy="593.1" r="9.9"/>
		<circle fill="#F4E9D8" cx="946.9" cy="671.7" r="9.9"/>
		<circle fill="#F4E9D8" cx="947" cy="741.6" r="9.9"/>
		<circle fill="#F4E9D8" cx="947" cy="819.8" r="9.9"/>
		<circle fill="#F4E9D8" cx="800.1" cy="436.5" r="9.9"/>
		<circle fill="#F4E9D8" cx="1058.2" cy="731.7" r="9.9"/>
		<circle fill="#7A5BA6" cx="1095.6" cy="393" r="9.9"/>
		<circle fill="#7A5BA6" cx="1022.9" cy="393" r="9.9"/>
		<rect x="665.4" y="328.4" fill="#F4E9D8" width="151.8" height="85.2"/>
		<circle fill="#F4E9D8" cx="1058.2" cy="472.6" r="14.7"/>
		<circle fill="#F4E9D8" cx="1083.2" cy="472.6" r="14.7"/>
		<circle fill="#F4E9D8" cx="1108.1" cy="472.6" r="14.7"/>
		<polygon fill="#F7901E" points="1058.6,240.4 1070.1,263.7 1095.8,267.4 1077.2,285.5 1081.6,311.1 1058.6,299.1 1035.6,311.1 
			1040,285.5 1021.4,267.4 1047.1,263.7 		"/>
		<rect x="1046.1" y="467.7" fill="#7A5BA6" width="29.4" height="40.1"/>
		<path fill="#F4E9D8" d="M1087.1,539.3c5.7,0,10.3,4.6,10.3,10.3l0,0c0,5.7-4.6,10.3-10.3,10.3h-70c-5.7,0-10.3-4.6-10.3-10.3l0,0
			c0-5.7,4.6-10.3,10.3-10.3H1087.1z"/>
		<path fill="#F4E9D8" d="M1087.1,572.5c5.7,0,10.3,4.6,10.3,10.3l0,0c0,5.7-4.6,10.3-10.3,10.3h-70c-5.7,0-10.3-4.6-10.3-10.3l0,0
			c0-5.7,4.6-10.3,10.3-10.3H1087.1z"/>
		<path fill="#F4E9D8" d="M1087.1,605.7c5.7,0,10.3,4.6,10.3,10.3l0,0c0,5.7-4.6,10.3-10.3,10.3h-70c-5.7,0-10.3-4.6-10.3-10.3l0,0
			c0-5.7,4.6-10.3,10.3-10.3H1087.1z"/>
		<circle fill="#7A5BA6" cx="1077.7" cy="506.8" r="19.4"/>
		<circle fill="#7A5BA6" cx="1065.4" cy="519.9" r="19.4"/>
		<path fill="#F4E9D8" d="M1087.1,506.1c5.7,0,10.3,4.6,10.3,10.3l0,0c0,5.7-4.6,10.3-10.3,10.3h-70c-5.7,0-10.3-4.6-10.3-10.3l0,0
			c0-5.7,4.6-10.3,10.3-10.3H1087.1z"/>
		<polygon fill="#523B80" points="956.9,348.8 1158.9,348.8 1136.7,311.1 979.4,311.1 		"/>
		<line fill="none" stroke="#F4E9D8" stroke-width="2.1229" stroke-miterlimit="10" x1="914.4" y1="422.1" x2="880.1" y2="387.8"/>
		<line fill="none" stroke="#F4E9D8" stroke-width="2.1229" stroke-miterlimit="10" x1="913.3" y1="480.7" x2="879.1" y2="515"/>
		<line fill="none" stroke="#F4E9D8" stroke-width="2.1229" stroke-miterlimit="10" x1="907.7" y1="451.2" x2="859.2" y2="451.2"/>
		<g>
			<path fill="#43316D" d="M1202.8,508.2v138.6c19.8,6.6,34.2,25.3,34.2,47.4c0,27.5-22.4,49.9-49.9,49.9
				c-27.5,0-49.9-22.4-49.9-49.9h-136.7c0,102.9,83.7,186.6,186.6,186.6c102.9,0,186.6-83.7,186.6-186.6
				C1373.6,596.5,1298.3,516.2,1202.8,508.2z"/>
		</g>
		<rect x="1065.4" y="506.3" fill="#F4E9D8" width="72.3" height="141.3"/>
		<circle fill="#F7901E" cx="1007.8" cy="457" r="20.3"/>
		<circle fill="#F7901E" cx="1041.5" cy="457" r="20.3"/>
		<circle fill="#F7901E" cx="1075.6" cy="457" r="20.3"/>
		<circle fill="#F7901E" cx="1104.6" cy="457" r="20.3"/>
		<path fill="#F7901E" d="M1124.9,441.3c0-7.7-6.2-13.9-13.9-13.9h-109.6c-7.7,0-13.9,6.2-13.9,13.9v11c0,7.7,6.2,13.9,13.9,13.9
			H1111c7.7,0,13.9-6.2,13.9-13.9V441.3z"/>
		<circle fill="#F4E9D8" cx="1062.4" cy="428.1" r="18.7"/>
		<path fill="none" stroke="#F4E9D8" stroke-width="2.1229" stroke-miterlimit="10" d="M1098.6,786.6c0,18.3-14.9,33.2-33.2,33.2
			s-33.2-14.9-33.2-33.2c0-18.3,33.2-243.2,33.2-243.2S1098.6,768.3,1098.6,786.6z"/>
		<polygon fill="#43316D" points="887.9,588.9 887.9,646.9 843.6,646.9 		"/>
	</g>
</g>
</svg>
