<?xml version="1.0" encoding="utf-8"?>
<!-- Generator: Adobe Illustrator 18.1.0, SVG Export Plug-In . SVG Version: 6.00 Build 0)  -->
<!DOCTYPE svg PUBLIC "-//W3C//DTD SVG 1.1//EN" "http://www.w3.org/Graphics/SVG/1.1/DTD/svg11.dtd">
<svg version="1.1" id="Layer_1" xmlns="http://www.w3.org/2000/svg" xmlns:xlink="http://www.w3.org/1999/xlink" x="0px" y="0px"
	 viewBox="0 0 708.3 702.3" enable-background="new 0 0 708.3 702.3" xml:space="preserve">
<g>
	<path fill="#523B80" d="M471.7,544.8c0,43.5-35.3,78.8-78.8,78.8l0,0c-43.5,0-78.8-35.3-78.8-78.8v-466c0-43.5,35.3-78.8,78.8-78.8
		l0,0c43.5,0,78.8,35.3,78.8,78.8V544.8z"/>
	<rect x="222.5" y="309.4" fill="#523B80" width="315.2" height="392.9"/>
	<rect x="0" y="259.4" fill="#523B80" width="152.4" height="189"/>
	<rect x="99.5" y="308.5" fill="#523B80" width="149.5" height="139.9"/>
	<path fill="#F4E9D8" d="M151.8,177.4c0,5.6-4.6,10.2-10.2,10.2l0,0c-5.6,0-10.2-4.6-10.2-10.2v-69.2c0-5.6,4.6-10.2,10.2-10.2l0,0
		c5.6,0,10.2,4.6,10.2,10.2V177.4z"/>
	<path fill="#F4E9D8" d="M119,140.2c0,5.6-4.6,10.2-10.2,10.2l0,0c-5.6,0-10.2-4.6-10.2-10.2V70.9c0-5.6,4.6-10.2,10.2-10.2l0,0
		c5.6,0,10.2,4.6,10.2,10.2V140.2z"/>
	<path fill="#F4E9D8" d="M86.1,140.2c0,5.6-4.6,10.2-10.2,10.2l0,0c-5.6,0-10.2-4.6-10.2-10.2V70.9c0-5.6,4.6-10.2,10.2-10.2l0,0
		c5.6,0,10.2,4.6,10.2,10.2V140.2z"/>
	<path fill="#F4E9D8" d="M53.3,140.2c0,5.6-4.6,10.2-10.2,10.2l0,0c-5.6,0-10.2-4.6-10.2-10.2V70.9c0-5.6,4.6-10.2,10.2-10.2l0,0
		c5.6,0,10.2,4.6,10.2,10.2V140.2z"/>
	<path fill="#F4E9D8" d="M20.4,140.2c0,5.6-4.6,10.2-10.2,10.2l0,0c-5.6,0-10.2-4.6-10.2-10.2V70.9c0-5.6,4.6-10.2,10.2-10.2l0,0
		c5.6,0,10.2,4.6,10.2,10.2V140.2z"/>
	<circle fill="#F4E9D8" cx="322.1" cy="247" r="51.6"/>
	<circle fill="#F4E9D8" cx="461.6" cy="247" r="51.6"/>
	<rect x="335.1" y="448.4" fill="#F7901E" width="137.3" height="47.9"/>
	<rect x="314.1" y="140.7" fill="#F4E9D8" width="158.3" height="168.6"/>
	<path fill="#F4E9D8" d="M347.7,195.3c0.4,5.1,4.6,9.1,9.8,9.1c5.2,0,9.5-4,9.8-9.1H347.7z"/>
	<circle fill="#F4E9D8" cx="362.8" cy="473.3" r="9.9"/>
	<circle fill="#F4E9D8" cx="281.6" cy="394.7" r="9.9"/>
	<circle fill="#F4E9D8" cx="281.5" cy="473.2" r="9.9"/>
	<circle fill="#F4E9D8" cx="281.6" cy="543.1" r="9.9"/>
	<circle fill="#F4E9D8" cx="281.6" cy="621.3" r="9.9"/>
	<circle fill="#F4E9D8" cx="134.7" cy="238" r="9.9"/>
	<circle fill="#F4E9D8" cx="392.8" cy="533.3" r="9.9"/>
	<circle fill="#7A5BA6" cx="430.3" cy="194.5" r="9.9"/>
	<circle fill="#7A5BA6" cx="357.6" cy="194.5" r="9.9"/>
	<rect x="0" y="129.9" fill="#F4E9D8" width="151.8" height="85.2"/>
	<circle fill="#F4E9D8" cx="392.9" cy="274.1" r="14.7"/>
	<circle fill="#F4E9D8" cx="417.8" cy="274.1" r="14.7"/>
	<circle fill="#F4E9D8" cx="442.8" cy="274.1" r="14.7"/>
	<polygon fill="#F7901E" points="393.2,41.9 404.7,65.2 430.4,68.9 411.8,87.1 416.2,112.7 393.2,100.6 370.2,112.7 374.6,87.1 
		356,68.9 381.7,65.2 	"/>
	<rect x="380.7" y="269.3" fill="#7A5BA6" width="29.4" height="40.1"/>
	<path fill="#F4E9D8" d="M421.7,340.8c5.7,0,10.3,4.6,10.3,10.3l0,0c0,5.7-4.6,10.3-10.3,10.3h-70c-5.7,0-10.3-4.6-10.3-10.3l0,0
		c0-5.7,4.6-10.3,10.3-10.3H421.7z"/>
	<path fill="#F4E9D8" d="M421.7,374c5.7,0,10.3,4.6,10.3,10.3l0,0c0,5.7-4.6,10.3-10.3,10.3h-70c-5.7,0-10.3-4.6-10.3-10.3l0,0
		c0-5.7,4.6-10.3,10.3-10.3H421.7z"/>
	<path fill="#F4E9D8" d="M421.7,407.2c5.7,0,10.3,4.6,10.3,10.3l0,0c0,5.7-4.6,10.3-10.3,10.3h-70c-5.7,0-10.3-4.6-10.3-10.3l0,0
		c0-5.7,4.6-10.3,10.3-10.3H421.7z"/>
	<circle fill="#7A5BA6" cx="412.3" cy="308.3" r="19.4"/>
	<circle fill="#7A5BA6" cx="400.1" cy="321.4" r="19.4"/>
	<path fill="#F4E9D8" d="M421.7,307.6c5.7,0,10.3,4.6,10.3,10.3l0,0c0,5.7-4.6,10.3-10.3,10.3h-70c-5.7,0-10.3-4.6-10.3-10.3l0,0
		c0-5.7,4.6-10.3,10.3-10.3H421.7z"/>
	<polygon fill="#523B80" points="291.5,150.4 493.5,150.4 471.4,112.7 314.1,112.7 	"/>
	<line fill="none" stroke="#F4E9D8" stroke-width="2.1229" stroke-miterlimit="10" x1="249" y1="223.6" x2="214.8" y2="189.3"/>
	<line fill="none" stroke="#F4E9D8" stroke-width="2.1229" stroke-miterlimit="10" x1="248" y1="282.3" x2="213.7" y2="316.5"/>
	<line fill="none" stroke="#F4E9D8" stroke-width="2.1229" stroke-miterlimit="10" x1="242.3" y1="252.7" x2="193.8" y2="252.7"/>
	<g>
		<path fill="#43316D" d="M537.4,309.7v138.6c19.8,6.6,34.2,25.3,34.2,47.4c0,27.5-22.4,49.9-49.9,49.9c-27.5,0-49.9-22.4-49.9-49.9
			H335.1c0,102.9,83.7,186.6,186.6,186.6c102.9,0,186.6-83.7,186.6-186.6C708.3,398,633,317.7,537.4,309.7z"/>
	</g>
	<rect x="400.1" y="307.8" fill="#F4E9D8" width="72.3" height="141.3"/>
	<circle fill="#F7901E" cx="342.4" cy="258.5" r="20.3"/>
	<circle fill="#F7901E" cx="376.1" cy="258.5" r="20.3"/>
	<circle fill="#F7901E" cx="410.3" cy="258.5" r="20.3"/>
	<circle fill="#F7901E" cx="439.2" cy="258.5" r="20.3"/>
	<path fill="#F7901E" d="M459.6,242.9c0-7.7-6.2-13.9-13.9-13.9H336c-7.7,0-13.9,6.2-13.9,13.9v11c0,7.7,6.2,13.9,13.9,13.9h109.6
		c7.7,0,13.9-6.2,13.9-13.9V242.9z"/>
	<circle fill="#F4E9D8" cx="397.1" cy="229.6" r="18.7"/>
	<path fill="none" stroke="#F4E9D8" stroke-width="2.1229" stroke-miterlimit="10" d="M433.3,588.2c0,18.3-14.9,33.2-33.2,33.2
		c-18.3,0-33.2-14.9-33.2-33.2c0-18.3,33.2-243.2,33.2-243.2S433.3,569.8,433.3,588.2z"/>
	<polygon fill="#43316D" points="222.5,390.5 222.5,448.4 178.3,448.4 	"/>
</g>
</svg>
