<?xml version="1.0" encoding="utf-8"?>
<!-- Generator: Adobe Illustrator 18.1.0, SVG Export Plug-In . SVG Version: 6.00 Build 0)  -->
<!DOCTYPE svg PUBLIC "-//W3C//DTD SVG 1.1//EN" "http://www.w3.org/Graphics/SVG/1.1/DTD/svg11.dtd">
<svg version="1.1" id="Layer_1" xmlns="http://www.w3.org/2000/svg" xmlns:xlink="http://www.w3.org/1999/xlink" x="0px" y="0px"
	 viewBox="0 0 782.4 722.5" enable-background="new 0 0 782.4 722.5" xml:space="preserve">
<g>
	<rect x="259.8" y="256.4" fill="#43316D" width="45.9" height="126.5"/>
	<rect x="254.8" y="226.1" fill="#43316D" width="160.8" height="496.4"/>
	<path fill="#F4E9D8" d="M584.5,281.4c-1-4.9-0.2-10.3,0.1-15.2c0.5-6.5,0.2-13.1,0.3-19.7c-1.8-12.4-1.6-24.6-0.4-37.3
		c1.4-15.5,3.3-30.9,1.9-46.5c-0.2-2.3,1.1-3.7,2.8-4.1v-34.7l-220.8-10.7L285,205.8l119.9-0.4l-24.1,94.2L584.5,281.4z"/>
	<circle fill="#7A5BA6" cx="501.4" cy="157.2" r="18.2"/>
	<path fill="#523B80" d="M587.5,547.3C587.5,547.3,587.5,547.3,587.5,547.3l0,146.6c0,0,0,0,0,0c5.5,0,11-0.3,16.4-0.7v0.7
		c99.8-8.6,178.4-94.8,178.4-199.4c0-0.1,0-0.2,0-0.4c0-0.1,0-0.2,0-0.4c0-104.7-78.6-190.8-178.4-199.4v0.7
		c-5.4-0.5-10.9-0.7-16.4-0.7c0,0,0,0,0,0v146.6c0,0,0,0,0,0c28.6,0,51.9,23.8,52.1,53.2C639.5,523.5,616.2,547.3,587.5,547.3z"/>
	<rect x="299.4" y="374" fill="#F4E9D8" width="127.1" height="231.8"/>
	<line fill="none" stroke="#43316D" stroke-width="2" stroke-miterlimit="10" x1="355.5" y1="416.8" x2="316.3" y2="416.8"/>
	<line fill="none" stroke="#43316D" stroke-width="2" stroke-miterlimit="10" x1="349.7" y1="433.5" x2="316.3" y2="433.5"/>
	<line fill="none" stroke="#43316D" stroke-width="2" stroke-miterlimit="10" x1="349.7" y1="466.8" x2="316.3" y2="466.8"/>
	<line fill="none" stroke="#43316D" stroke-width="2" stroke-miterlimit="10" x1="349.7" y1="450.1" x2="316.3" y2="450.1"/>
	<rect x="299.4" y="370.2" fill="#F7901E" width="63.5" height="23.8"/>
	<polygon fill="#523B80" points="589.3,722.5 275.6,722.5 383.5,288.6 589.3,160.8 	"/>
	<path fill="#F7901E" d="M453,542.3c5.5,0,9.9,4.4,9.9,9.9l0,0c0,5.5-4.4,9.9-9.9,9.9h-67c-5.5,0-9.9-4.4-9.9-9.9l0,0
		c0-5.5,4.4-9.9,9.9-9.9H453z"/>
	<path fill="#F7901E" d="M417,574.1c5.5,0,9.9,4.4,9.9,9.9l0,0c0,5.5-4.4,9.9-9.9,9.9h-67c-5.5,0-9.9-4.4-9.9-9.9l0,0
		c0-5.5,4.4-9.9,9.9-9.9H417z"/>
	<path fill="#F7901E" d="M417,605.9c5.5,0,9.9,4.4,9.9,9.9l0,0c0,5.5-4.4,9.9-9.9,9.9h-67c-5.5,0-9.9-4.4-9.9-9.9l0,0
		c0-5.5,4.4-9.9,9.9-9.9H417z"/>
	<path fill="#F7901E" d="M417,637.7c5.5,0,9.9,4.4,9.9,9.9l0,0c0,5.5-4.4,9.9-9.9,9.9h-67c-5.5,0-9.9-4.4-9.9-9.9l0,0
		c0-5.5,4.4-9.9,9.9-9.9H417z"/>
	<path fill="#F7901E" d="M417,669.7c5.5,0,9.9,4.4,9.9,9.9l0,0c0,5.5-4.4,9.9-9.9,9.9h-67c-5.5,0-9.9-4.4-9.9-9.9l0,0
		c0-5.5,4.4-9.9,9.9-9.9H417z"/>
	<rect x="407.1" y="542.3" fill="#F7901E" width="82.4" height="146.9"/>
	<circle fill="#F4E9D8" cx="315.3" cy="382.9" r="6.1"/>
	<circle fill="#43316D" cx="336.8" cy="382.9" r="6.1"/>
	<polygon fill="#43316D" points="384.4,288.1 472.7,288.1 472.7,244.9 589.3,244.9 589.3,158 	"/>
	<path fill="#43316D" d="M254.5,582.2c0.6,0,1.1,0.1,1.6,0.3V454.3c0,0,0,0,0,0c-26.5,0-48.1-21.5-48.3-48c0.2-26.5,21.8-48,48.3-48
		c0,0,0,0,0,0V226.1h0c-5.1,0-10.2-0.4-15.2,0l0,0C148.4,233.9,75.6,311.6,75.6,406c0,0.1,0,0.2,0,0.3s0,0.2,0,0.3
		c0,93.6,71.6,170.8,163,179.6c0.5-1.7,1.8-3.1,4.1-3.1c1.6,0,2.7,0.7,3.4,1.6c0.5-0.2,1.1-0.3,1.8-0.3c1.1,0,2,0.3,2.7,0.9
		C250.9,583.6,252.3,582.2,254.5,582.2z"/>
	<polygon fill="#523B80" points="665.4,158.2 225.6,158.2 348,98.7 559,98.7 	"/>
	<polygon fill="#523B80" points="559,0 454.4,41.5 348,0 348,98.7 559,98.7 	"/>
	<rect x="348" y="64.8" fill="#43316D" width="211" height="33.9"/>
	<g>
		<path fill="#F7901E" d="M342,517.9c-5.3-19.9-22.5-35.6-42.8-39c-20.9-3.5-42.6,6.1-54,23.9c-9.2,14.3-10.4,32.8-3.4,49.5
			c7,16.6,21.2,28.5,37.8,31.8c3.3,0.7,6.6,1,9.9,1c3.2,0,6.4-0.3,9.5-0.9v-21.5c-7.2,0.1-13.2,0-15-0.3
			c-9.4-1.9-17.6-8.9-21.7-18.7c-4.2-9.9-3.6-20.6,1.6-28.8c6.5-10.2,19.5-16,31.6-14c11.7,2,21.9,11.3,25,22.8
			c1.6,5.9,7.7,9.5,13.6,7.9C340.1,530,343.6,523.9,342,517.9z"/>
	</g>
	<path fill="#F7901E" d="M257.1,527c0,5.5-4.4,9.9-9.9,9.9l0,0c-5.5,0-9.9-4.4-9.9-9.9v-67c0-5.5,4.4-9.9,9.9-9.9l0,0
		c5.5,0,9.9,4.4,9.9,9.9V527z"/>
	<path fill="#F7901E" d="M285.5,492.1c0,5.5-4.4,9.9-9.9,9.9l0,0c-5.5,0-9.9-4.4-9.9-9.9v-67c0-5.5,4.4-9.9,9.9-9.9l0,0
		c5.5,0,9.9,4.4,9.9,9.9V492.1z"/>
	<path fill="#F7901E" d="M285.4,573.5c-19-4.3-29.3-22.4-29.5-40.9h-18.5V586h62.3v-22.4C295.3,564.7,290.5,574.6,285.4,573.5z"/>
	<rect x="489.5" y="542.3" fill="#7A5BA6" width="46.2" height="146.9"/>
	<circle fill="#F4E9D8" cx="512.6" cy="570.6" r="9.5"/>
	<line fill="none" stroke="#F4E9D8" stroke-width="2.1229" stroke-miterlimit="10" x1="183.4" y1="502" x2="59.8" y2="502"/>
	<line fill="none" stroke="#F4E9D8" stroke-width="2.1229" stroke-miterlimit="10" x1="183.4" y1="536.9" x2="0" y2="536.9"/>
</g>
</svg>
