<?xml version="1.0" encoding="utf-8"?>
<!-- Generator: Adobe Illustrator 18.1.0, SVG Export Plug-In . SVG Version: 6.00 Build 0)  -->
<!DOCTYPE svg PUBLIC "-//W3C//DTD SVG 1.1//EN" "http://www.w3.org/Graphics/SVG/1.1/DTD/svg11.dtd">
<svg version="1.1" xmlns="http://www.w3.org/2000/svg" xmlns:xlink="http://www.w3.org/1999/xlink" x="0px" y="0px"
	 viewBox="0 0 1400 900" enable-background="new 0 0 1400 900" xml:space="preserve">
<g id="Background">
	<rect x="-2.8" y="-2.8" fill="#7A5BA6" width="1402.8" height="920.5"/>
</g>
<g id="Page">
	<path fill="#876BAF" d="M448.3,172.6H49.6V838h514.2V287.6C525.1,249.5,486.8,210.9,448.3,172.6z"/>
	<polygon fill="#9580BB" points="563.8,287.6 448.3,287.6 448.3,172.6 	"/>
</g>
<g id="Text">
	<path fill="#523B80" d="M1952.6,743.2c0,43.5-35.3,78.8-78.8,78.8l0,0c-43.5,0-78.8-35.3-78.8-78.8v-466
		c0-43.5,35.3-78.8,78.8-78.8l0,0c43.5,0,78.8,35.3,78.8,78.8V743.2z"/>
	<rect x="1703.5" y="507.8" fill="#523B80" width="315.2" height="392.9"/>
	<rect x="1481" y="457.9" fill="#523B80" width="152.4" height="189"/>
	<rect x="1580.5" y="506.9" fill="#523B80" width="149.5" height="139.9"/>
	<path fill="#F4E9D8" d="M1632.8,375.9c0,5.6-4.6,10.2-10.2,10.2l0,0c-5.6,0-10.2-4.6-10.2-10.2v-69.2c0-5.6,4.6-10.2,10.2-10.2l0,0
		c5.6,0,10.2,4.6,10.2,10.2V375.9z"/>
	<path fill="#F4E9D8" d="M1599.9,338.6c0,5.6-4.6,10.2-10.2,10.2l0,0c-5.6,0-10.2-4.6-10.2-10.2v-69.2c0-5.6,4.6-10.2,10.2-10.2l0,0
		c5.6,0,10.2,4.6,10.2,10.2V338.6z"/>
	<path fill="#F4E9D8" d="M1567.1,338.6c0,5.6-4.6,10.2-10.2,10.2l0,0c-5.6,0-10.2-4.6-10.2-10.2v-69.2c0-5.6,4.6-10.2,10.2-10.2l0,0
		c5.6,0,10.2,4.6,10.2,10.2V338.6z"/>
	<path fill="#F4E9D8" d="M1534.2,338.6c0,5.6-4.6,10.2-10.2,10.2l0,0c-5.6,0-10.2-4.6-10.2-10.2v-69.2c0-5.6,4.6-10.2,10.2-10.2l0,0
		c5.6,0,10.2,4.6,10.2,10.2V338.6z"/>
	<path fill="#F4E9D8" d="M1501.4,338.6c0,5.6-4.6,10.2-10.2,10.2l0,0c-5.6,0-10.2-4.6-10.2-10.2v-69.2c0-5.6,4.6-10.2,10.2-10.2l0,0
		c5.6,0,10.2,4.6,10.2,10.2V338.6z"/>
	<circle fill="#F4E9D8" cx="1803.1" cy="445.5" r="51.6"/>
	<circle fill="#F4E9D8" cx="1942.6" cy="445.5" r="51.6"/>
	<rect x="1816.1" y="646.9" fill="#F7901E" width="137.3" height="47.9"/>
	<rect x="1795" y="339.2" fill="#F4E9D8" width="158.3" height="168.6"/>
	<path fill="#F4E9D8" d="M1828.7,393.7c0.4,5.1,4.6,9.1,9.8,9.1s9.5-4,9.8-9.1H1828.7z"/>
	<circle fill="#F4E9D8" cx="1843.7" cy="671.8" r="9.9"/>
	<circle fill="#F4E9D8" cx="1762.6" cy="593.1" r="9.9"/>
	<circle fill="#F4E9D8" cx="1762.5" cy="671.7" r="9.9"/>
	<circle fill="#F4E9D8" cx="1762.6" cy="741.6" r="9.9"/>
	<circle fill="#F4E9D8" cx="1762.6" cy="819.8" r="9.9"/>
	<circle fill="#F4E9D8" cx="1615.7" cy="436.5" r="9.9"/>
	<circle fill="#F4E9D8" cx="1873.8" cy="731.7" r="9.9"/>
	<circle fill="#7A5BA6" cx="1911.3" cy="393" r="9.9"/>
	<circle fill="#7A5BA6" cx="1838.5" cy="393" r="9.9"/>
	<rect x="1481" y="328.4" fill="#F4E9D8" width="151.8" height="85.2"/>
	<circle fill="#F4E9D8" cx="1873.8" cy="472.6" r="14.7"/>
	<circle fill="#F4E9D8" cx="1898.8" cy="472.6" r="14.7"/>
	<circle fill="#F4E9D8" cx="1923.7" cy="472.6" r="14.7"/>
	<polygon fill="#F7901E" points="1874.2,240.4 1885.7,263.7 1911.4,267.4 1892.8,285.5 1897.2,311.1 1874.2,299.1 1851.2,311.1 
		1855.6,285.5 1837,267.4 1862.7,263.7 	"/>
	<rect x="1861.7" y="467.7" fill="#7A5BA6" width="29.4" height="40.1"/>
	<path fill="#F4E9D8" d="M1902.7,539.3c5.7,0,10.3,4.6,10.3,10.3l0,0c0,5.7-4.6,10.3-10.3,10.3h-70c-5.7,0-10.3-4.6-10.3-10.3l0,0
		c0-5.7,4.6-10.3,10.3-10.3H1902.7z"/>
	<path fill="#F4E9D8" d="M1902.7,572.5c5.7,0,10.3,4.6,10.3,10.3l0,0c0,5.7-4.6,10.3-10.3,10.3h-70c-5.7,0-10.3-4.6-10.3-10.3l0,0
		c0-5.7,4.6-10.3,10.3-10.3H1902.7z"/>
	<path fill="#F4E9D8" d="M1902.7,605.7c5.7,0,10.3,4.6,10.3,10.3l0,0c0,5.7-4.6,10.3-10.3,10.3h-70c-5.7,0-10.3-4.6-10.3-10.3l0,0
		c0-5.7,4.6-10.3,10.3-10.3H1902.7z"/>
	<circle fill="#7A5BA6" cx="1893.3" cy="506.8" r="19.4"/>
	<circle fill="#7A5BA6" cx="1881.1" cy="519.9" r="19.4"/>
	<path fill="#F4E9D8" d="M1902.7,506.1c5.7,0,10.3,4.6,10.3,10.3l0,0c0,5.7-4.6,10.3-10.3,10.3h-70c-5.7,0-10.3-4.6-10.3-10.3l0,0
		c0-5.7,4.6-10.3,10.3-10.3H1902.7z"/>
	<polygon fill="#523B80" points="1772.5,348.8 1974.5,348.8 1952.3,311.1 1795,311.1 	"/>
	<line fill="none" stroke="#F4E9D8" stroke-width="2.1229" stroke-miterlimit="10" x1="1730" y1="422.1" x2="1695.7" y2="387.8"/>
	<line fill="none" stroke="#F4E9D8" stroke-width="2.1229" stroke-miterlimit="10" x1="1728.9" y1="480.7" x2="1694.7" y2="515"/>
	<line fill="none" stroke="#F4E9D8" stroke-width="2.1229" stroke-miterlimit="10" x1="1723.3" y1="451.2" x2="1674.8" y2="451.2"/>
	<g>
		<path fill="#43316D" d="M2018.4,508.2v138.6c19.8,6.6,34.2,25.3,34.2,47.4c0,27.5-22.4,49.9-49.9,49.9
			c-27.5,0-49.9-22.4-49.9-49.9h-136.7c0,102.9,83.7,186.6,186.6,186.6c102.9,0,186.6-83.7,186.6-186.6
			C2189.2,596.5,2113.9,516.2,2018.4,508.2z"/>
	</g>
	<rect x="1881.1" y="506.3" fill="#F4E9D8" width="72.3" height="141.3"/>
	<circle fill="#F7901E" cx="1823.4" cy="457" r="20.3"/>
	<circle fill="#F7901E" cx="1857.1" cy="457" r="20.3"/>
	<circle fill="#F7901E" cx="1891.3" cy="457" r="20.3"/>
	<circle fill="#F7901E" cx="1920.2" cy="457" r="20.3"/>
	<path fill="#F7901E" d="M1940.5,441.3c0-7.7-6.2-13.9-13.9-13.9H1817c-7.7,0-13.9,6.2-13.9,13.9v11c0,7.7,6.2,13.9,13.9,13.9h109.6
		c7.7,0,13.9-6.2,13.9-13.9V441.3z"/>
	<circle fill="#F4E9D8" cx="1878" cy="428.1" r="18.7"/>
	<path fill="none" stroke="#F4E9D8" stroke-width="2.1229" stroke-miterlimit="10" d="M1914.2,786.6c0,18.3-14.9,33.2-33.2,33.2
		s-33.2-14.9-33.2-33.2c0-18.3,33.2-243.2,33.2-243.2S1914.2,768.3,1914.2,786.6z"/>
	<polygon fill="#43316D" points="1703.5,588.9 1703.5,646.9 1659.3,646.9 	"/>
	<g>
		<text transform="matrix(1 0 0 1 171.0972 383.1421)"><tspan x="0" y="0" fill="#F4E9D8" font-family="'DINAlternate-Bold'" font-size="173" letter-spacing="3">4</tspan><tspan x="92.2" y="0" fill="#F4E9D8" font-family="'DINAlternate-Bold'" font-size="173">04</tspan></text>
	</g>
	<g>
		
			<text transform="matrix(1 0 0 1 221.8721 442.8975)" fill="#F7901E" font-family="'HelveticaNeue-Bold'" font-size="28.2482" letter-spacing="2">UH OH!</text>
	</g>
	<g>
		<text transform="matrix(1 0 0 1 181.5923 478.3965)"><tspan x="0" y="0" fill="#F4E9D8" font-family="'HelveticaNeue'" font-size="28">Looks like someone</tspan><tspan x="-41" y="33.6" fill="#F4E9D8" font-family="'HelveticaNeue'" font-size="28">has run off with that page!</tspan></text>
	</g>
	<rect x="156.7" y="667.8" fill="#F7901E" width="289" height="103.2"/>
	<g>
		
			<text transform="matrix(1 0 0 1 205.21 727.7295)" fill="#F4E9D8" font-family="'HelveticaNeue-Bold'" font-size="28.2482" letter-spacing="2">BACK HOME</text>
	</g>
	<text transform="matrix(1 0 0 1 179.2661 584.9824)"><tspan x="0" y="0" fill="#F4E9D8" font-family="'HelveticaNeue'" font-size="15">While we send out the blood hounds,</tspan><tspan x="63.2" y="22" fill="#F4E9D8" font-family="'HelveticaNeue'" font-size="15">why don’t you go </tspan><tspan x="1.9" y="44" fill="#F4E9D8" font-family="'HelveticaNeue'" font-size="15">back to the homepage and try again.</tspan></text>
	<path fill="none" stroke="#F7901E" stroke-width="23" stroke-linecap="round" stroke-miterlimit="10" d="M1858.9,959.1
		c-4.3-16.2-18.5-29.1-35-31.9c-16.9-2.8-34.9,5.1-44.2,19.6c-15.8,24.7-0.6,60.8,28.2,66.6c16.5,3.3,34-3.9,44-17.3"/>
</g>
<g id="Theife">
	<g>
		<rect x="856.3" y="433.9" fill="#43316D" width="45.9" height="126.5"/>
		<rect x="851.3" y="403.6" fill="#43316D" width="160.8" height="496.4"/>
		<path fill="#F4E9D8" d="M1181.1,458.9c-1-4.9-0.2-10.3,0.1-15.2c0.5-6.5,0.2-13.1,0.3-19.7c-1.8-12.4-1.6-24.6-0.4-37.3
			c1.4-15.5,3.3-30.9,1.9-46.5c-0.2-2.3,1.1-3.7,2.8-4.1v-34.7L965,290.9l-83.5,92.5l119.9-0.4l-24.1,94.2L1181.1,458.9z"/>
		<circle fill="#7A5BA6" cx="1097.9" cy="334.7" r="18.2"/>
		<path fill="#523B80" d="M1184.1,724.8C1184.1,724.8,1184.1,724.8,1184.1,724.8l0,146.6c0,0,0,0,0,0c5.5,0,11-0.3,16.4-0.7v0.7
			c99.8-8.6,178.4-94.8,178.4-199.4c0-0.1,0-0.2,0-0.4c0-0.1,0-0.2,0-0.4c0-104.7-78.6-190.8-178.4-199.4v0.7
			c-5.4-0.5-10.9-0.7-16.4-0.7c0,0,0,0,0,0v146.6c0,0,0,0,0,0c28.6,0,51.9,23.8,52.1,53.2C1236,701,1212.7,724.8,1184.1,724.8z"/>
		<rect x="896" y="551.6" fill="#F4E9D8" width="127.1" height="231.8"/>
		<line fill="none" stroke="#43316D" stroke-width="2" stroke-miterlimit="10" x1="952.1" y1="594.3" x2="912.8" y2="594.3"/>
		<line fill="none" stroke="#43316D" stroke-width="2" stroke-miterlimit="10" x1="946.3" y1="611" x2="912.8" y2="611"/>
		<line fill="none" stroke="#43316D" stroke-width="2" stroke-miterlimit="10" x1="946.3" y1="644.3" x2="912.8" y2="644.3"/>
		<line fill="none" stroke="#43316D" stroke-width="2" stroke-miterlimit="10" x1="946.3" y1="627.7" x2="912.8" y2="627.7"/>
		<rect x="896" y="547.7" fill="#F7901E" width="63.5" height="23.8"/>
		<polygon fill="#523B80" points="1185.8,900 872.2,900 980,466.2 1185.8,338.3 		"/>
		<path fill="#F7901E" d="M1049.5,719.8c5.5,0,9.9,4.4,9.9,9.9l0,0c0,5.5-4.4,9.9-9.9,9.9h-67c-5.5,0-9.9-4.4-9.9-9.9l0,0
			c0-5.5,4.4-9.9,9.9-9.9H1049.5z"/>
		<path fill="#F7901E" d="M1013.5,751.6c5.5,0,9.9,4.4,9.9,9.9l0,0c0,5.5-4.4,9.9-9.9,9.9h-67c-5.5,0-9.9-4.4-9.9-9.9l0,0
			c0-5.5,4.4-9.9,9.9-9.9H1013.5z"/>
		<path fill="#F7901E" d="M1013.5,783.4c5.5,0,9.9,4.4,9.9,9.9l0,0c0,5.5-4.4,9.9-9.9,9.9h-67c-5.5,0-9.9-4.4-9.9-9.9l0,0
			c0-5.5,4.4-9.9,9.9-9.9H1013.5z"/>
		<path fill="#F7901E" d="M1013.5,815.2c5.5,0,9.9,4.4,9.9,9.9l0,0c0,5.5-4.4,9.9-9.9,9.9h-67c-5.5,0-9.9-4.4-9.9-9.9l0,0
			c0-5.5,4.4-9.9,9.9-9.9H1013.5z"/>
		<path fill="#F7901E" d="M1013.5,847.2c5.5,0,9.9,4.4,9.9,9.9l0,0c0,5.5-4.4,9.9-9.9,9.9h-67c-5.5,0-9.9-4.4-9.9-9.9l0,0
			c0-5.5,4.4-9.9,9.9-9.9H1013.5z"/>
		<rect x="1003.6" y="719.8" fill="#F7901E" width="82.4" height="146.9"/>
		<circle fill="#F4E9D8" cx="911.9" cy="560.5" r="6.1"/>
		<circle fill="#43316D" cx="933.4" cy="560.5" r="6.1"/>
		<polygon fill="#43316D" points="980.9,465.6 1069.3,465.6 1069.3,422.4 1185.8,422.4 1185.8,335.5 		"/>
		<path fill="#43316D" d="M851.1,759.7c0.6,0,1.1,0.1,1.6,0.3V631.8c0,0,0,0,0,0c-26.5,0-48.1-21.5-48.3-48
			c0.2-26.5,21.8-48,48.3-48c0,0,0,0,0,0V403.6h0c-5.1,0-10.2-0.4-15.2,0l0,0c-92.4,7.8-165.3,85.5-165.3,179.9c0,0.1,0,0.2,0,0.3
			s0,0.2,0,0.3c0,93.6,71.6,170.8,163,179.6c0.5-1.7,1.8-3.1,4.1-3.1c1.6,0,2.7,0.7,3.4,1.6c0.5-0.2,1.1-0.3,1.8-0.3
			c1.1,0,2,0.3,2.7,0.9C847.4,761.1,848.8,759.7,851.1,759.7z"/>
		<polygon fill="#523B80" points="1262,335.8 822.2,335.8 944.5,276.2 1155.6,276.2 		"/>
		<polygon fill="#523B80" points="1155.6,177.5 1050.9,219 944.5,177.5 944.5,276.2 1155.6,276.2 		"/>
		<rect x="944.5" y="242.3" fill="#43316D" width="211" height="33.9"/>
		<g>
			<path fill="#F7901E" d="M938.6,695.4c-5.3-19.9-22.5-35.6-42.8-39c-20.9-3.5-42.6,6.1-54,23.9c-9.2,14.3-10.4,32.8-3.4,49.5
				c7,16.6,21.2,28.5,37.8,31.8c3.3,0.7,6.6,1,9.9,1c3.2,0,6.4-0.3,9.5-0.9v-21.5c-7.2,0.1-13.2,0-15-0.3
				c-9.4-1.9-17.6-8.9-21.7-18.7c-4.2-9.9-3.6-20.6,1.6-28.8c6.5-10.2,19.5-16,31.6-14c11.7,2,21.9,11.3,25,22.8
				c1.6,5.9,7.7,9.5,13.6,7.9C936.6,707.5,940.1,701.4,938.6,695.4z"/>
		</g>
		<path fill="#F7901E" d="M853.7,704.5c0,5.5-4.4,9.9-9.9,9.9l0,0c-5.5,0-9.9-4.4-9.9-9.9v-67c0-5.5,4.4-9.9,9.9-9.9l0,0
			c5.5,0,9.9,4.4,9.9,9.9V704.5z"/>
		<path fill="#F7901E" d="M882,669.6c0,5.5-4.4,9.9-9.9,9.9l0,0c-5.5,0-9.9-4.4-9.9-9.9v-67c0-5.5,4.4-9.9,9.9-9.9l0,0
			c5.5,0,9.9,4.4,9.9,9.9V669.6z"/>
		<path fill="#F7901E" d="M881.9,751c-19-4.3-29.3-22.4-29.5-40.9h-18.5v53.4h62.3v-22.4C891.8,742.3,887,752.1,881.9,751z"/>
		<rect x="1086" y="719.8" fill="#7A5BA6" width="46.2" height="146.9"/>
		<circle fill="#F4E9D8" cx="1109.1" cy="748.1" r="9.5"/>
		<line fill="none" stroke="#F4E9D8" stroke-width="2.1229" stroke-miterlimit="10" x1="779.9" y1="679.5" x2="656.3" y2="679.5"/>
		<line fill="none" stroke="#F4E9D8" stroke-width="2.1229" stroke-miterlimit="10" x1="779.9" y1="714.4" x2="596.5" y2="714.4"/>
	</g>
</g>
</svg>
